<?xml version="1.0" encoding="UTF-8" standalone="no"?>
<svg
   xmlns:dc="http://purl.org/dc/elements/1.1/"
   xmlns:cc="http://creativecommons.org/ns#"
   xmlns:rdf="http://www.w3.org/1999/02/22-rdf-syntax-ns#"
   xmlns:svg="http://www.w3.org/2000/svg"
   xmlns="http://www.w3.org/2000/svg"
   xmlns:xlink="http://www.w3.org/1999/xlink"
   xmlns:sodipodi="http://sodipodi.sourceforge.net/DTD/sodipodi-0.dtd"
   xmlns:inkscape="http://www.inkscape.org/namespaces/inkscape"
   width="48.00000000000001"
   height="48.00000000000001"
   version="1.1"
   id="svg50"
   sodipodi:docname="favicon.svg"
   inkscape:version="1.0.1 (3bc2e813f5, 2020-09-07)">
  <metadata
     id="metadata54">
    <rdf:RDF>
      <cc:Work
         rdf:about="">
        <dc:format>image/svg+xml</dc:format>
        <dc:type
           rdf:resource="http://purl.org/dc/dcmitype/StillImage" />
        <dc:title></dc:title>
      </cc:Work>
    </rdf:RDF>
  </metadata>
  <sodipodi:namedview
     pagecolor="#ffffff"
     bordercolor="#666666"
     borderopacity="1"
     objecttolerance="10"
     gridtolerance="10"
     guidetolerance="10"
     inkscape:pageopacity="0"
     inkscape:pageshadow="2"
     inkscape:window-width="1920"
     inkscape:window-height="1017"
     id="namedview52"
     showgrid="false"
     inkscape:zoom="17.708333"
     inkscape:cx="20.52686"
     inkscape:cy="22.785346"
     inkscape:window-x="-8"
     inkscape:window-y="-8"
     inkscape:window-maximized="1"
     inkscape:current-layer="svg50"
     inkscape:document-rotation="0" />
  <defs
     id="defs34">
    <path
       id="a"
       d="m0,0l48,0l0,48l-48,0l0,-48z" />
    <clipPath
       id="b-8">
      <use
         id="svg_1-9"
         xlink:href="#a" />
    </clipPath>
    <clipPath
       id="b-8-1">
      <use
         id="svg_1-9-6"
         xlink:href="#a" />
    </clipPath>
  </defs>
  <clipPath
     id="b">
    <use
       id="svg_1"
       xlink:href="#a" />
  </clipPath>
  <g
     id="g41">
    <title
       id="title38">background</title>
    <rect
       fill="none"
       id="canvas_background"
       height="402"
       width="582"
       y="-1"
       x="-1" />
  </g>
  <rect
     rx="4"
     id="svg_3"
     height="47.621162"
     width="47.692669"
     y="0.189419"
     x="0.153666"
     stroke-width="0"
     fill="#008a9b" />
  <path
     id="svg_4"
     d="M 30.82856,19.097557"
     opacity="0.5"
     fill-opacity="null"
     stroke-opacity="null"
     stroke-width="1.5"
     stroke="#ffffff"
     fill="#ffffff" />
  <path
     d="M 3.7776149,1.4117648 H 44.222385 V 46.588235 H 3.7776149 Z"
     fill="none"
     id="path20"
     style="stroke-width:0.890525" />
  <g
     id="g974"
     transform="matrix(0.03808785,0,0,0.03808785,6.4204004,8.3051456)"
     style="opacity:0.85;fill:#ffffff;fill-opacity:1">
    <g
       id="g918"
       style="fill:#ffffff;fill-opacity:1">
	<path
   d="m 133.798,220.88 40.857,-41.35 c 3.403,26.899 10.494,61.944 24.98,101.124 18.28,49.439 44.703,95.309 78.536,136.334 35.685,43.271 79.621,81.076 130.883,112.68 v 241.97209 c 0,28.995 23.505,52.5 52.5,52.5 28.995,0 52.5,-23.505 52.5,-52.5 V 529.669 c 51.263,-31.604 95.198,-69.408 130.884,-112.68 33.833,-41.025 60.256,-86.896 78.535,-136.334 14.3,-38.673 21.391,-73.312 24.845,-100.071 l 41.438,40.944 c 10.232,10.11 23.567,15.155 36.898,15.155 13.541,0 27.078,-5.207 37.347,-15.6 20.379,-20.625 20.18,-53.866 -0.445,-74.245 L 730.283,15.155 C 720.378,5.369 707.008,-0.101 693.068,0.001 679.145,0.084 665.824,5.696 656.038,15.6 L 526.125,147.082 c -20.379,20.625 -20.18,53.865 0.445,74.245 20.625,20.379 53.866,20.18 74.245,-0.445 l 41.608,-42.111 c -3.028,18.279 -8.299,40.76 -17.436,65.471 -14.189,38.375 -34.732,74.021 -61.061,105.945 -27.716,33.609 -62.085,63.272 -102.378,88.469 -39.354,-24.608 -73.062,-53.485 -100.421,-86.122 -26.258,-31.323 -46.912,-66.309 -61.388,-103.987 -9.836,-25.601 -15.499,-49.11 -18.748,-68.262 l 41.743,41.245 c 10.231,10.11 23.566,15.155 36.897,15.155 13.541,0 27.078,-5.207 37.348,-15.6 20.379,-20.625 20.18,-53.866 -0.445,-74.245 L 263.266,15.155 C 253.36,5.369 239.943,-0.101 226.05,0.001 212.127,0.084 198.806,5.696 189.02,15.6 L 59.107,147.082 c -20.379,20.625 -20.18,53.865 0.445,74.245 20.627,20.378 53.867,20.179 74.246,-0.447 z"
   id="path916"
   style="fill:#ffffff;fill-opacity:1"
   sodipodi:nodetypes="cccccssscsccsssccccccccccccsccscccccccc" />

</g>
    <g
       id="g920"
       style="fill:#ffffff;fill-opacity:1">
</g>
    <g
       id="g922"
       style="fill:#ffffff;fill-opacity:1">
</g>
    <g
       id="g924"
       style="fill:#ffffff;fill-opacity:1">
</g>
    <g
       id="g926"
       style="fill:#ffffff;fill-opacity:1">
</g>
    <g
       id="g928"
       style="fill:#ffffff;fill-opacity:1">
</g>
    <g
       id="g930"
       style="fill:#ffffff;fill-opacity:1">
</g>
    <g
       id="g932"
       style="fill:#ffffff;fill-opacity:1">
</g>
    <g
       id="g934"
       style="fill:#ffffff;fill-opacity:1">
</g>
    <g
       id="g936"
       style="fill:#ffffff;fill-opacity:1">
</g>
    <g
       id="g938"
       style="fill:#ffffff;fill-opacity:1">
</g>
    <g
       id="g940"
       style="fill:#ffffff;fill-opacity:1">
</g>
    <g
       id="g942"
       style="fill:#ffffff;fill-opacity:1">
</g>
    <g
       id="g944"
       style="fill:#ffffff;fill-opacity:1">
</g>
    <g
       id="g946"
       style="fill:#ffffff;fill-opacity:1">
</g>
    <g
       id="g948"
       style="fill:#ffffff;fill-opacity:1">
</g>
  </g>
</svg>
